<svg width="15.000000" height="21.000000" viewBox="0 0 15 21" fill="none" xmlns="http://www.w3.org/2000/svg" xmlns:xlink="http://www.w3.org/1999/xlink">
	<desc>
			Created with Pixso.
	</desc>
	<defs>
		<clipPath id="clip12_4">
			<rect id="trash" width="15.000000" height="21.000000" fill="white" fill-opacity="0"/>
		</clipPath>
	</defs>
	<rect id="trash" width="15.000000" height="21.000000" fill="#FFFFFF" fill-opacity="0"/>
	<g clip-path="url(#clip12_4)">
		<path id="Vector" d="M13.62 4.05C13.62 4.05 13.62 3.39 11.17 3.02L11.17 2.11C11.15 1.04 10.32 0.18 9.3 0.18L5.62 0.18C4.62 0.2 3.82 1.06 3.82 2.11L3.82 3.02C2.89 3.1 2.04 3.48 1.36 4.06L0.15 4.05L0.15 5.34L14.84 5.34L14.84 4.05L13.62 4.05ZM5.05 2.11C5.05 1.76 5.32 1.48 5.66 1.47L9.33 1.47L9.33 1.47C9.68 1.47 9.96 1.75 9.98 2.11L9.98 2.84C9.55 2.78 9.05 2.75 8.54 2.75C8.4 2.75 8.25 2.75 8.11 2.76C7.43 2.76 5.58 2.76 5.05 2.85L5.05 2.12L5.05 2.11Z" fill="#BDBDBD" fill-opacity="1.000000" fill-rule="evenodd"/>
		<path id="Vector" d="M0.15 6.63L0.15 7.92L1.37 7.92L1.37 19.52C2.88 20.33 4.67 20.81 6.56 20.81C6.56 20.81 6.56 20.81 6.57 20.81L8.43 20.81C8.43 20.81 8.43 20.81 8.43 20.81C10.32 20.81 12.11 20.33 13.68 19.49L13.62 7.92L14.84 7.92L14.84 6.63L0.15 6.63L0.15 6.63ZM5.05 18.13C4.63 18.08 4.22 18 3.82 17.91L3.82 9.21L5.05 9.21L5.05 18.13ZM8.72 18.23L6.27 18.23L6.27 9.21L8.72 9.21L8.72 18.23ZM11.17 17.87C10.84 17.96 10.43 18.05 10.01 18.11L9.94 9.21L11.17 9.21L11.17 17.87L11.17 17.87Z" fill="#BDBDBD" fill-opacity="1.000000" fill-rule="evenodd"/>
	</g>
</svg>
