<svg width="26.666626" height="25.000000" viewBox="0 0 26.6666 25" fill="none" xmlns="http://www.w3.org/2000/svg" xmlns:xlink="http://www.w3.org/1999/xlink">
	<desc>
			Created with Pixso.
	</desc>
	<defs/>
	<path id="Vector" d="M23.33 20.16L23.33 18.33L7.66 18.33L8.66 16.5L24 15L26.66 5L6.16 5L5 0L0 0L0 1.66L3.66 1.66L7.16 15.66L5 20L5 22.5C5 23.83 6.16 25 7.5 25C8.83 25 10 23.83 10 22.5C10 21.16 8.83 20 7.5 20L20 20L20 22.5C20 23.83 21.16 25 22.5 25C23.83 25 25 23.83 25 22.5C25 21.33 24.33 20.5 23.33 20.16L23.33 20.16Z" fill="#000000" fill-opacity="1.000000" fill-rule="evenodd"/>
</svg>
